<svg width="30" height="14" viewBox="0 0 30 14" fill="none" xmlns="http://www.w3.org/2000/svg">
    <path
        d="M19.3019 7.32173C19.3019 5.27483 17.6366 3.60949 15.5897 3.60949H12.7338C11.65 3.60949 10.7683 4.49119 10.7683 5.57501V12.9828H12.7523V5.5935H15.5897C16.5426 5.5935 17.318 6.36879 17.318 7.32173V12.9828H19.3019V7.32173ZM28.8092 6.15725C27.559 5.21165 26.2025 4.40708 24.7774 3.76602L24.7515 3.82376L24.3018 5.73335C25.4677 6.28595 26.5803 6.95883 27.6124 7.73956C27.816 7.89364 27.933 8.12793 27.9332 8.38244C27.9334 8.52909 27.8932 8.8058 27.6221 9.01163C26.4946 9.86786 25.2671 10.5982 23.9738 11.1824C23.6105 11.3464 23.3137 11.1979 23.2031 11.1264C23.094 11.0562 22.8404 10.8504 22.8401 10.4606L22.8368 0.741702L20.8528 0.742427L20.8562 10.4618C20.8569 11.4089 21.3323 12.2807 22.1276 12.7937C22.5866 13.0898 23.1103 13.24 23.6375 13.24C24.0282 13.24 24.4208 13.1575 24.7904 12.9905C26.2195 12.345 27.5759 11.5379 28.822 10.5916C29.5189 10.0623 29.9181 9.25634 29.9171 8.38044C29.9163 7.49956 29.5125 6.68919 28.8092 6.15725ZM9.13103 6.39463L9.12767 12.9834L7.14376 12.9823L7.14711 6.39336C7.14738 6.00163 6.89288 5.79462 6.78339 5.72374C6.67354 5.65259 6.37925 5.50468 6.02024 5.66601C4.73078 6.24607 3.50321 6.97424 2.37154 7.8302C2.16788 7.98428 2.05096 8.21857 2.05069 8.47316C2.05051 8.61972 2.09075 8.89643 2.36184 9.10226C3.3755 9.87203 4.47038 10.539 5.62081 11.0905L5.15622 13.0637C3.74095 12.4211 2.3971 11.6203 1.16192 10.6822C0.465025 10.153 0.0657761 9.34707 0.0666824 8.47117C0.0674982 7.5902 0.47137 6.77983 1.1747 6.24789C2.42483 5.30229 3.78128 4.49772 5.20643 3.85666C6.07236 3.4672 7.06491 3.5427 7.8615 4.05823C8.65719 4.57322 9.13184 5.44667 9.13103 6.39463Z"
        fill="#006FC7" />
</svg>
    