<svg width="16" height="4" viewBox="0 0 16 4" fill="none" xmlns="http://www.w3.org/2000/svg">
    <path
        d="M8.00005 0.399994C7.6836 0.399994 7.37426 0.493832 7.11114 0.669643C6.84802 0.845453 6.64294 1.09534 6.52184 1.3877C6.40074 1.68006 6.36906 2.00177 6.43079 2.31214C6.49253 2.62251 6.64491 2.9076 6.86868 3.13136C7.09244 3.35513 7.37754 3.50751 7.6879 3.56925C7.99827 3.63099 8.31998 3.5993 8.61234 3.4782C8.9047 3.3571 9.15459 3.15202 9.3304 2.88891C9.50621 2.62579 9.60005 2.31644 9.60005 1.99999C9.60005 1.57565 9.43148 1.16868 9.13142 0.868623C8.83136 0.568565 8.4244 0.399994 8.00005 0.399994ZM2.40005 0.399994C2.0836 0.399994 1.77426 0.493832 1.51114 0.669643C1.24802 0.845453 1.04294 1.09534 0.921842 1.3877C0.800742 1.68006 0.769057 2.00177 0.830793 2.31214C0.892529 2.62251 1.04491 2.9076 1.26868 3.13136C1.49244 3.35513 1.77754 3.50751 2.0879 3.56925C2.39827 3.63099 2.71998 3.5993 3.01234 3.4782C3.3047 3.3571 3.55459 3.15202 3.7304 2.88891C3.90621 2.62579 4.00005 2.31644 4.00005 1.99999C4.00005 1.57565 3.83148 1.16868 3.53142 0.868623C3.23136 0.568565 2.8244 0.399994 2.40005 0.399994ZM13.6 0.399994C13.2836 0.399994 12.9743 0.493832 12.7111 0.669643C12.448 0.845453 12.2429 1.09534 12.1218 1.3877C12.0007 1.68006 11.9691 2.00177 12.0308 2.31214C12.0925 2.62251 12.2449 2.9076 12.4687 3.13136C12.6924 3.35513 12.9775 3.50751 13.2879 3.56925C13.5983 3.63099 13.92 3.5993 14.2123 3.4782C14.5047 3.3571 14.7546 3.15202 14.9304 2.88891C15.1062 2.62579 15.2 2.31644 15.2 1.99999C15.2 1.57565 15.0315 1.16868 14.7314 0.868623C14.4314 0.568565 14.0244 0.399994 13.6 0.399994Z"
        fill="white" />
</svg>
