<svg width="18" height="12" viewBox="0 0 18 12" fill="none" xmlns="http://www.w3.org/2000/svg">
    <path
        d="M4.20001 5.19999C4.04179 5.19999 3.88712 5.24691 3.75556 5.33482C3.624 5.42272 3.52146 5.54767 3.46091 5.69385C3.40036 5.84003 3.38452 6.00088 3.41538 6.15607C3.44625 6.31125 3.52245 6.4538 3.63433 6.56568C3.74621 6.67756 3.88876 6.75375 4.04394 6.78462C4.19913 6.81549 4.35998 6.79965 4.50616 6.7391C4.65234 6.67855 4.77728 6.57601 4.86519 6.44445C4.95309 6.31289 5.00001 6.15822 5.00001 5.99999C5.00001 5.78782 4.91573 5.58434 4.7657 5.43431C4.61567 5.28428 4.41219 5.19999 4.20001 5.19999ZM13.8 5.19999C13.6418 5.19999 13.4871 5.24691 13.3556 5.33482C13.224 5.42272 13.1215 5.54767 13.0609 5.69385C13.0004 5.84003 12.9845 6.00088 13.0154 6.15607C13.0463 6.31125 13.1224 6.4538 13.2343 6.56568C13.3462 6.67756 13.4888 6.75375 13.6439 6.78462C13.7991 6.81549 13.96 6.79965 14.1062 6.7391C14.2523 6.67855 14.3773 6.57601 14.4652 6.44445C14.5531 6.31289 14.6 6.15822 14.6 5.99999C14.6 5.78782 14.5157 5.58434 14.3657 5.43431C14.2157 5.28428 14.0122 5.19999 13.8 5.19999ZM15.4 0.399994H2.60001C1.96349 0.399994 1.35304 0.65285 0.902956 1.10294C0.452869 1.55303 0.200012 2.16347 0.200012 2.79999V9.19999C0.200012 9.83651 0.452869 10.447 0.902956 10.8971C1.35304 11.3471 1.96349 11.6 2.60001 11.6H15.4C16.0365 11.6 16.647 11.3471 17.0971 10.8971C17.5472 10.447 17.8 9.83651 17.8 9.19999V2.79999C17.8 2.16347 17.5472 1.55303 17.0971 1.10294C16.647 0.65285 16.0365 0.399994 15.4 0.399994ZM16.2 9.19999C16.2 9.41217 16.1157 9.61565 15.9657 9.76568C15.8157 9.91571 15.6122 9.99999 15.4 9.99999H2.60001C2.38784 9.99999 2.18436 9.91571 2.03433 9.76568C1.8843 9.61565 1.80001 9.41217 1.80001 9.19999V2.79999C1.80001 2.58782 1.8843 2.38434 2.03433 2.23431C2.18436 2.08428 2.38784 1.99999 2.60001 1.99999H15.4C15.6122 1.99999 15.8157 2.08428 15.9657 2.23431C16.1157 2.38434 16.2 2.58782 16.2 2.79999V9.19999ZM9.00001 3.59999C8.52534 3.59999 8.06132 3.74075 7.66664 4.00447C7.27197 4.26818 6.96435 4.64301 6.7827 5.08155C6.60105 5.5201 6.55352 6.00266 6.64613 6.46821C6.73873 6.93377 6.96731 7.36141 7.30296 7.69705C7.6386 8.0327 8.06624 8.26127 8.5318 8.35388C8.99735 8.44648 9.47991 8.39896 9.91845 8.21731C10.357 8.03566 10.7318 7.72804 10.9955 7.33336C11.2593 6.93869 11.4 6.47467 11.4 5.99999C11.4 5.36347 11.1472 4.75303 10.6971 4.30294C10.247 3.85285 9.63653 3.59999 9.00001 3.59999ZM9.00001 6.79999C8.84179 6.79999 8.68712 6.75308 8.55556 6.66517C8.424 6.57726 8.32146 6.45232 8.26091 6.30614C8.20036 6.15996 8.18452 5.99911 8.21539 5.84392C8.24625 5.68874 8.32245 5.54619 8.43433 5.43431C8.54621 5.32243 8.68876 5.24623 8.84394 5.21537C8.99913 5.1845 9.15998 5.20034 9.30616 5.26089C9.45234 5.32144 9.57728 5.42398 9.66519 5.55554C9.75309 5.6871 9.80001 5.84177 9.80001 5.99999C9.80001 6.21217 9.71573 6.41565 9.5657 6.56568C9.41567 6.71571 9.21219 6.79999 9.00001 6.79999Z"
        fill="white" />
</svg>
    