<svg width="16" height="13" viewBox="0 0 16 13" fill="none" xmlns="http://www.w3.org/2000/svg">
    <path
        d="M4 8.39999H6.4C6.61217 8.39999 6.81566 8.31571 6.96569 8.16568C7.11571 8.01565 7.2 7.81217 7.2 7.59999C7.2 7.38782 7.11571 7.18434 6.96569 7.03431C6.81566 6.88428 6.61217 6.79999 6.4 6.79999H4C3.78783 6.79999 3.58434 6.88428 3.43431 7.03431C3.28429 7.18434 3.2 7.38782 3.2 7.59999C3.2 7.81217 3.28429 8.01565 3.43431 8.16568C3.58434 8.31571 3.78783 8.39999 4 8.39999ZM13.6 0.399994H2.4C1.76348 0.399994 1.15303 0.65285 0.702944 1.10294C0.252856 1.55303 0 2.16347 0 2.79999V9.99999C0 10.6365 0.252856 11.247 0.702944 11.6971C1.15303 12.1471 1.76348 12.4 2.4 12.4H13.6C14.2365 12.4 14.847 12.1471 15.2971 11.6971C15.7471 11.247 16 10.6365 16 9.99999V2.79999C16 2.16347 15.7471 1.55303 15.2971 1.10294C14.847 0.65285 14.2365 0.399994 13.6 0.399994ZM14.4 9.99999C14.4 10.2122 14.3157 10.4157 14.1657 10.5657C14.0157 10.7157 13.8122 10.8 13.6 10.8H2.4C2.18783 10.8 1.98434 10.7157 1.83431 10.5657C1.68429 10.4157 1.6 10.2122 1.6 9.99999V5.19999H14.4V9.99999ZM14.4 3.59999H1.6V2.79999C1.6 2.58782 1.68429 2.38434 1.83431 2.23431C1.98434 2.08428 2.18783 1.99999 2.4 1.99999H13.6C13.8122 1.99999 14.0157 2.08428 14.1657 2.23431C14.3157 2.38434 14.4 2.58782 14.4 2.79999V3.59999Z"
        fill="white" />
</svg>
    