<svg width="16" height="12" viewBox="0 0 16 12" fill="none" xmlns="http://www.w3.org/2000/svg">
    <path
        d="M15.768 3.83199L12.568 0.631987C12.4934 0.557396 12.4048 0.498227 12.3074 0.457859C12.2099 0.417491 12.1055 0.396713 12 0.396713C11.7869 0.396713 11.5826 0.481344 11.432 0.631987C11.2813 0.78263 11.1967 0.986945 11.1967 1.19999C11.1967 1.41303 11.2813 1.61734 11.432 1.76799L13.272 3.59999H3.99998C3.78781 3.59999 3.58433 3.68427 3.4343 3.8343C3.28427 3.98433 3.19998 4.18781 3.19998 4.39999C3.19998 4.61216 3.28427 4.81564 3.4343 4.96567C3.58433 5.1157 3.78781 5.19999 3.99998 5.19999H15.2C15.3579 5.1992 15.5121 5.15168 15.6431 5.06341C15.774 4.97514 15.876 4.85008 15.936 4.70399C15.9972 4.5583 16.014 4.39773 15.9841 4.24254C15.9542 4.08734 15.879 3.94449 15.768 3.83199V3.83199ZM12 6.79999H0.799983C0.642043 6.80077 0.48787 6.8483 0.356894 6.93656C0.225918 7.02483 0.123999 7.14989 0.0639834 7.29599C0.00271984 7.44168 -0.0140183 7.60225 0.015881 7.75744C0.0457803 7.91263 0.120977 8.05549 0.231983 8.16799L3.43198 11.368C3.50635 11.443 3.59483 11.5025 3.69232 11.5431C3.78981 11.5837 3.89437 11.6046 3.99998 11.6046C4.10559 11.6046 4.21016 11.5837 4.30765 11.5431C4.40513 11.5025 4.49361 11.443 4.56798 11.368C4.64297 11.2936 4.70248 11.2051 4.7431 11.1076C4.78371 11.0102 4.80462 10.9056 4.80462 10.8C4.80462 10.6944 4.78371 10.5898 4.7431 10.4923C4.70248 10.3948 4.64297 10.3064 4.56798 10.232L2.72798 8.39999H12C12.2122 8.39999 12.4156 8.3157 12.5657 8.16567C12.7157 8.01564 12.8 7.81216 12.8 7.59999C12.8 7.38781 12.7157 7.18433 12.5657 7.0343C12.4156 6.88427 12.2122 6.79999 12 6.79999Z"
        fill="white" />
</svg>
    