<svg width="21" height="20" viewBox="0 0 21 20" fill="none" xmlns="http://www.w3.org/2000/svg">
    <path
        d="M10.5 5.83333C10.8296 5.83333 11.1518 5.73559 11.4259 5.55245C11.7 5.36931 11.9136 5.10902 12.0398 4.80447C12.1659 4.49993 12.1989 4.16482 12.1346 3.84152C12.0703 3.51822 11.9116 3.22124 11.6785 2.98816C11.4454 2.75507 11.1484 2.59633 10.8251 2.53203C10.5018 2.46772 10.1667 2.50072 9.86218 2.62687C9.55763 2.75301 9.29733 2.96664 9.1142 3.24072C8.93106 3.5148 8.83331 3.83703 8.83331 4.16667C8.83331 4.60869 9.00891 5.03262 9.32147 5.34518C9.63403 5.65774 10.058 5.83333 10.5 5.83333ZM10.5 14.1667C10.1703 14.1667 9.84811 14.2644 9.57403 14.4476C9.29995 14.6307 9.08633 14.891 8.96018 15.1955C8.83404 15.5001 8.80103 15.8352 8.86534 16.1585C8.92965 16.4818 9.08838 16.7788 9.32147 17.0118C9.55456 17.2449 9.85153 17.4037 10.1748 17.468C10.4981 17.5323 10.8332 17.4993 11.1378 17.3731C11.4423 17.247 11.7026 17.0334 11.8858 16.7593C12.0689 16.4852 12.1666 16.163 12.1666 15.8333C12.1666 15.3913 11.9911 14.9674 11.6785 14.6548C11.3659 14.3423 10.942 14.1667 10.5 14.1667ZM10.5 8.33333C10.1703 8.33333 9.84811 8.43108 9.57403 8.61422C9.29995 8.79735 9.08633 9.05765 8.96018 9.3622C8.83404 9.66674 8.80103 10.0018 8.86534 10.3252C8.92965 10.6485 9.08838 10.9454 9.32147 11.1785C9.55456 11.4116 9.85153 11.5703 10.1748 11.6346C10.4981 11.699 10.8332 11.6659 11.1378 11.5398C11.4423 11.4137 11.7026 11.2 11.8858 10.926C12.0689 10.6519 12.1666 10.3296 12.1666 10C12.1666 9.55797 11.9911 9.13405 11.6785 8.82149C11.3659 8.50893 10.942 8.33333 10.5 8.33333Z"
        fill="black" />
</svg>
    