<svg width="10" height="8" viewBox="0 0 10 8" fill="none" xmlns="http://www.w3.org/2000/svg">
    <path
        d="M4.56799 1.032C4.49362 0.957017 4.40514 0.897502 4.30765 0.856887C4.21016 0.816272 4.1056 0.795362 3.99999 0.795362C3.89438 0.795362 3.78981 0.816272 3.69233 0.856887C3.59484 0.897502 3.50636 0.957017 3.43199 1.032L1.03199 3.432C0.957005 3.50637 0.89749 3.59485 0.856875 3.69234C0.81626 3.78983 0.795349 3.89439 0.795349 4C0.795349 4.10561 0.81626 4.21017 0.856875 4.30766C0.89749 4.40515 0.957005 4.49363 1.03199 4.568L3.43199 6.968C3.50636 7.04298 3.59484 7.1025 3.69233 7.14311C3.78981 7.18373 3.89438 7.20464 3.99999 7.20464C4.1056 7.20464 4.21016 7.18373 4.30765 7.14311C4.40514 7.1025 4.49362 7.04298 4.56799 6.968C4.64297 6.89363 4.70249 6.80515 4.7431 6.70766C4.78372 6.61017 4.80463 6.50561 4.80463 6.4C4.80463 6.29439 4.78372 6.18983 4.7431 6.09234C4.70249 5.99485 4.64297 5.90637 4.56799 5.832L2.72799 4L4.56799 2.168C4.64297 2.09363 4.70249 2.00515 4.7431 1.90766C4.78372 1.81017 4.80463 1.70561 4.80463 1.6C4.80463 1.49439 4.78372 1.38983 4.7431 1.29234C4.70249 1.19485 4.64297 1.10637 4.56799 1.032ZM7.12799 4L8.99999 2.168C9.15063 2.01736 9.23526 1.81304 9.23526 1.6C9.23526 1.38696 9.15063 1.18264 8.99999 1.032C8.84935 0.881357 8.64503 0.796727 8.43199 0.796727C8.21895 0.796727 8.01463 0.881357 7.86399 1.032L5.46399 3.432C5.38901 3.50637 5.32949 3.59485 5.28888 3.69234C5.24826 3.78983 5.22735 3.89439 5.22735 4C5.22735 4.10561 5.24826 4.21017 5.28888 4.30766C5.32949 4.40515 5.38901 4.49363 5.46399 4.568L7.86399 6.968C7.93836 7.04298 8.02684 7.1025 8.12433 7.14311C8.22181 7.18373 8.32638 7.20464 8.43199 7.20464C8.5376 7.20464 8.64216 7.18373 8.73965 7.14311C8.83714 7.1025 8.92562 7.04298 8.99999 6.968C9.07497 6.89363 9.13449 6.80515 9.1751 6.70766C9.21572 6.61017 9.23663 6.50561 9.23663 6.4C9.23663 6.29439 9.21572 6.18983 9.1751 6.09234C9.13449 5.99485 9.07497 5.90637 8.99999 5.832L7.12799 4Z"
        fill="#64748B" />
</svg>
    