<svg width="9" height="11" viewBox="0 0 9 11" fill="none" xmlns="http://www.w3.org/2000/svg">
    <path fill-rule="evenodd" clip-rule="evenodd"
        d="M1.75434 6.1757L1.76393 10.3052C1.76393 10.6962 1.44124 11.011 1.04803 10.9997C0.667792 10.9879 0.375 10.6561 0.375 10.2765V0.70631H0.376128C0.376128 0.703489 0.375 0.700104 0.375 0.697284C0.375 0.313665 0.685844 0.00282073 1.06946 0.00282073C1.45139 0.00282073 1.76111 0.311408 1.76336 0.693335H1.76393V4.78565H6.7002C6.77129 4.78565 6.82883 4.7281 6.82883 4.65702C6.82883 4.64461 6.82657 4.63276 6.82375 4.62091L6.81924 4.60907L5.38292 0.969202C5.38067 0.964125 5.37954 0.958483 5.37728 0.953406C5.36205 0.916172 5.34964 0.876682 5.34061 0.836628C5.34005 0.833807 5.34005 0.830986 5.33949 0.828165C5.33102 0.784726 5.32651 0.740159 5.32651 0.694463C5.32651 0.554555 5.36826 0.424801 5.4399 0.315357C5.56345 0.125804 5.77726 0 6.02041 0H6.02097C6.06441 0.000564145 6.10616 0.00507731 6.14734 0.0129753C6.16032 0.0152319 6.17216 0.0186168 6.18458 0.0220017C6.21335 0.0287714 6.24212 0.0372336 6.2692 0.0479524C6.28161 0.0524655 6.29346 0.0569787 6.30587 0.0626201C6.33577 0.0761596 6.36454 0.0919557 6.39162 0.109444C6.39839 0.113957 6.40572 0.117342 6.41249 0.121855C6.44521 0.144421 6.47624 0.169808 6.50501 0.198015C6.51291 0.205349 6.51911 0.213811 6.52645 0.221709C6.54732 0.243147 6.56594 0.266277 6.58399 0.290535C6.59132 0.301818 6.59866 0.312537 6.60599 0.323819C6.62179 0.349206 6.63589 0.375721 6.64887 0.4028C6.65338 0.412954 6.65902 0.422545 6.66297 0.4327C6.66466 0.436649 6.66692 0.440598 6.66861 0.444547L6.67087 0.451316L8.55681 5.14613C8.64764 5.36671 8.64764 5.61438 8.55737 5.83496L8.55681 5.83552L6.65902 10.5653C6.65789 10.5676 6.65677 10.5704 6.65564 10.5726L6.6483 10.5907L6.64661 10.5901C6.51629 10.8694 6.20827 11.0499 5.8664 10.9771C5.61197 10.923 5.40549 10.7216 5.344 10.4683C5.30564 10.3086 5.32369 10.1563 5.38067 10.0243L5.3801 10.0237L6.81585 6.37823C6.86099 6.27781 6.79442 6.1757 6.68385 6.1757H1.75434Z"
        fill="#009877" />
</svg>
    