<svg width="97" height="31" viewBox="0 0 97 31" fill="none" xmlns="http://www.w3.org/2000/svg">
<path fill-rule="evenodd" clip-rule="evenodd" d="M37.9008 1.87142L48.6445 27.2236C48.8289 27.676 48.9466 27.9982 49.0054 28.2141C49.0706 28.4601 49.104 28.7189 49.104 28.9887C49.104 29.4077 48.9418 29.8315 48.6254 30.2427C48.379 30.5649 47.9148 30.9506 47.1088 30.9506C46.2726 30.9506 45.8338 30.5395 45.6128 30.1934C45.403 29.8649 45.1836 29.4125 44.9419 28.8109L35.2316 5.6333L25.4338 28.8331C25.2207 29.4331 25.0172 29.8855 24.8153 30.2077C24.6023 30.5474 24.1683 30.9506 23.2971 30.9506C22.7598 30.9506 22.2828 30.7458 21.9172 30.3554C21.5595 29.9728 21.3766 29.5411 21.3766 29.0681C21.3766 28.7919 21.4116 28.5331 21.4784 28.3014C21.5157 28.1731 26.203 17.0636 29.5134 9.21725L29.514 9.21577C31.2823 5.0246 32.6576 1.76488 32.7213 1.60793L32.7388 1.57459C33.1919 0.642853 34.1489 0 35.2554 0C36.443 0 37.4573 0.73809 37.8626 1.78253L37.9008 1.87142ZM96.5406 27.2236C96.725 27.676 96.8426 27.9982 96.9014 28.2141C96.9666 28.4601 97 28.7189 97 28.9887C97 29.4077 96.8394 29.8315 96.5215 30.2427C96.2751 30.5649 95.8109 30.9506 95.0048 30.9506C94.1686 30.9506 93.7298 30.5395 93.5089 30.1934C93.299 29.8649 93.0796 29.4125 92.838 28.8109L83.1276 5.6333L73.3314 28.8331C73.1168 29.4331 72.9133 29.8855 72.713 30.2077C72.4999 30.5474 72.0643 30.9506 71.1947 30.9506C70.6574 30.9506 70.1789 30.7458 69.8132 30.3554C69.4555 29.9728 69.2743 29.5411 69.2743 29.0681C69.2743 28.7919 69.3077 28.5331 69.376 28.3014C69.4148 28.1641 74.777 15.4565 78.0818 7.62429L78.092 7.60009L78.0922 7.59979C79.5213 4.21293 80.5633 1.74356 80.6189 1.60793L80.6348 1.57459C81.0879 0.642853 82.045 0 83.153 0C84.3406 0 85.3549 0.73809 85.7603 1.78253L85.7968 1.87142L96.5406 27.2236ZM64.5925 27.0428C64.59 27.0431 64.5875 27.0436 64.5852 27.044C64.5812 27.0448 64.5774 27.0455 64.5736 27.0455V27.0423H55.7583L55.736 16.6964L55.7631 12.7869V1.95204H55.7615C55.7567 0.879031 54.8839 0.00919553 53.806 0.00919553C52.725 0.00919553 51.849 0.88538 51.849 1.96315C51.849 1.96993 51.8502 1.97671 51.8515 1.98448L51.8522 1.98855H51.849V28.9963C51.849 30.0757 52.725 30.9503 53.806 30.9503C53.834 30.9503 53.8643 30.9514 53.8953 30.9526C53.9596 30.9551 54.0269 30.9578 54.0827 30.9503H57.7233H64.6086V30.9487C65.6849 30.9439 66.5545 30.0709 66.5545 28.9963C66.5545 27.9185 65.6801 27.0423 64.5991 27.0423C64.5968 27.0423 64.5946 27.0425 64.5925 27.0428ZM3.91403 29.0026L3.88701 17.3836H17.7785C18.0901 17.3836 18.2777 17.6709 18.1505 17.9535L14.1045 28.2105L14.1061 28.2121C13.9455 28.5836 13.8947 29.0121 14.0028 29.4613C14.1761 30.174 14.7579 30.7407 15.4749 30.8931C16.4383 31.0978 17.3063 30.5899 17.6736 29.8042L17.6783 29.8058L17.699 29.755C17.7006 29.7518 17.7022 29.7482 17.7038 29.7447C17.7054 29.7411 17.7069 29.7375 17.7085 29.7343L23.0566 16.4265L23.0581 16.4249C23.3125 15.8043 23.3125 15.1075 23.0566 14.4868L17.7419 1.27739L17.7356 1.25834C17.7332 1.25278 17.7304 1.24723 17.7276 1.24167C17.7248 1.23611 17.722 1.23056 17.7197 1.22501C17.7132 1.20834 17.7051 1.19222 17.6969 1.176C17.6911 1.16442 17.6852 1.15279 17.6799 1.14088C17.6434 1.06469 17.6036 0.990091 17.5591 0.918663C17.5488 0.902804 17.5385 0.887342 17.5281 0.87188C17.5178 0.85639 17.5074 0.8409 17.4971 0.825013C17.4462 0.756759 17.3938 0.69168 17.3349 0.631363C17.3271 0.622976 17.3198 0.614363 17.3125 0.605779C17.3004 0.591621 17.2884 0.577544 17.2745 0.564697C17.1935 0.485333 17.106 0.413904 17.0138 0.350413C17.0043 0.344064 16.9943 0.338508 16.9844 0.332953C16.9745 0.327397 16.9645 0.321842 16.955 0.315492C16.8787 0.266286 16.7976 0.221842 16.7133 0.183747C16.6784 0.167874 16.645 0.155176 16.61 0.142478C16.5337 0.112319 16.4526 0.0885098 16.3715 0.0694623C16.3681 0.0685374 16.3648 0.0676124 16.3614 0.0666904C16.33 0.0581186 16.2996 0.0497982 16.2666 0.0440657C16.1506 0.0218436 16.0329 0.00914526 15.9105 0.00755797H15.9089C15.2237 0.00755797 14.6212 0.361524 14.273 0.894854C14.0711 1.20279 13.9535 1.56787 13.9535 1.96151C13.9535 2.09008 13.9662 2.21548 13.99 2.3377C13.9908 2.34167 13.9912 2.34564 13.9916 2.34961C13.992 2.35357 13.9924 2.35754 13.9932 2.36151C14.0187 2.47421 14.0536 2.58532 14.0966 2.69008C14.0997 2.69722 14.1021 2.70476 14.1045 2.7123C14.1069 2.71984 14.1093 2.72738 14.1125 2.73452L18.16 12.9757L18.1728 13.0091C18.1807 13.0424 18.1871 13.0757 18.1871 13.1106C18.1871 13.3106 18.0249 13.4725 17.8246 13.4725H3.91403V1.95834H3.91244C3.90608 0.883743 3.0333 0.0154944 1.95702 0.0154944C0.875968 0.0154944 0 0.890092 0 1.96945C0 1.97342 0.000794889 1.97778 0.00158978 1.98215C0.00238467 1.98651 0.00317956 1.99088 0.00317956 1.99485H0V28.9216C0 29.9899 0.825095 30.9232 1.89661 30.9566C3.00468 30.9883 3.91403 30.1026 3.91403 29.0026Z" fill="#009877"/>
</svg>
