<svg width="27" height="10" viewBox="0 0 27 10" fill="none" xmlns="http://www.w3.org/2000/svg">
    <path fill-rule="evenodd" clip-rule="evenodd"
        d="M0.602783 9.29448H11.6538V5.61343H0.602783V9.29448Z" fill="#009877" />
    <path fill-rule="evenodd" clip-rule="evenodd"
        d="M0.602783 4.27447H11.6538V0.589279H0.602783V4.27447Z" fill="#38BDF8" />
    <path fill-rule="evenodd" clip-rule="evenodd"
        d="M22.7057 8.5473L22.6569 8.55698C22.4859 8.59016 22.4237 8.60306 22.2988 8.60306C22.0104 8.60306 21.6689 8.4556 21.6689 7.75976C21.6689 7.40216 21.7283 6.92613 22.2661 6.92613H22.2698C22.3615 6.93304 22.4661 6.94318 22.6633 7.0017L22.7057 7.01507V8.5473ZM22.7938 5.07868L22.7053 5.09481V6.38143L22.6265 6.35838L22.6035 6.35147C22.515 6.32567 22.3118 6.26622 22.115 6.26622C21.0385 6.26622 20.8123 7.08003 20.8123 7.76251C20.8123 8.69752 21.3371 9.23576 22.2528 9.23576C22.6399 9.23576 22.9256 9.19659 23.2141 9.1012C23.48 9.01641 23.5753 8.89475 23.5753 8.63531V4.94412C23.3191 4.98974 23.0532 5.03583 22.7938 5.07868V5.07868Z"
        fill="#27292D" />
    <path fill-rule="evenodd" clip-rule="evenodd"
        d="M25.905 8.56979L25.859 8.58269L25.6954 8.62555C25.541 8.66472 25.4032 8.68776 25.2986 8.68776C25.0456 8.68776 24.8949 8.56288 24.8949 8.34952C24.8949 8.21219 24.9567 7.97948 25.3705 7.97948H25.905V8.56979ZM25.5276 6.24988C25.1958 6.24988 24.8548 6.30886 24.4318 6.4402L24.1558 6.52222L24.2475 7.14572L24.5166 7.05724C24.7991 6.96553 25.1497 6.90609 25.4129 6.90609C25.5304 6.90609 25.8917 6.90609 25.8917 7.2964V7.46691H25.3898C24.4742 7.46691 24.0511 7.75907 24.0511 8.38625C24.0511 8.9208 24.441 9.24246 25.0977 9.24246C25.3009 9.24246 25.5834 9.20283 25.8258 9.14384L25.8391 9.14061L25.8525 9.14384L25.9341 9.15674C26.1903 9.20283 26.4557 9.24891 26.7152 9.29822V7.25078C26.7152 6.58766 26.3152 6.24988 25.5276 6.24988V6.24988Z"
        fill="#27292D" />
    <path fill-rule="evenodd" clip-rule="evenodd"
        d="M19.5289 8.56979L19.4829 8.58269L19.3193 8.62555C19.1649 8.66472 19.0303 8.68776 18.922 8.68776C18.6695 8.68776 18.5188 8.56288 18.5188 8.34952C18.5188 8.21219 18.5806 7.97948 18.9912 7.97948H19.5257V8.56979H19.5289ZM19.155 6.24988C18.8205 6.24988 18.4827 6.30886 18.0596 6.4402L17.7836 6.52222L17.8758 7.14572L18.1444 7.05724C18.4265 6.96553 18.7781 6.90609 19.0403 6.90609C19.1582 6.90609 19.5195 6.90609 19.5195 7.2964V7.46691H19.0177C18.102 7.46691 17.6758 7.75907 17.6758 8.38625C17.6758 8.9208 18.0656 9.24246 18.7255 9.24246C18.9288 9.24246 19.2112 9.20282 19.4541 9.14384L19.467 9.14061L19.4804 9.14384L19.5587 9.15674C19.8181 9.20282 20.0804 9.24891 20.3398 9.30144V7.25401C20.3435 6.58443 19.9426 6.24988 19.155 6.24988V6.24988Z"
        fill="#27292D" />
    <path fill-rule="evenodd" clip-rule="evenodd"
        d="M16.0741 6.25616C15.6576 6.25616 15.3129 6.39394 15.1848 6.45293L15.152 6.46952L15.1225 6.44648C14.9451 6.31837 14.6857 6.25247 14.3249 6.25247C14.0069 6.25247 13.7083 6.29855 13.3834 6.39394C13.1046 6.47874 12.9958 6.6133 12.9958 6.86629V9.20588H13.8691V7.0437L13.912 7.03034C14.0885 6.97135 14.194 6.96122 14.2958 6.96122C14.5479 6.96122 14.676 7.09578 14.676 7.35844V9.20911H15.5359V7.32204C15.5359 7.21052 15.5129 7.14554 15.5096 7.13172L15.4801 7.07596L15.5391 7.05015C15.6705 6.99117 15.8152 6.96122 15.9658 6.96122C16.1396 6.96122 16.3465 7.03034 16.3465 7.35844V9.20911H17.2027V7.27319C17.2027 6.58749 16.835 6.25616 16.0741 6.25616"
        fill="#27292D" />
    <path fill-rule="evenodd" clip-rule="evenodd"
        d="M25.2618 2.99139C25.1342 2.99139 24.9208 2.97849 24.7531 2.94531L24.7042 2.93563V1.67252C24.7042 1.56699 24.6844 1.50156 24.6812 1.49188L24.6549 1.43935L24.7107 1.4163C24.724 1.40939 24.7369 1.40663 24.7531 1.39971L24.7632 1.39326C24.783 1.38681 24.8028 1.38036 24.8222 1.37345C24.8319 1.37022 24.8388 1.36746 24.8452 1.36746C25.0392 1.31446 25.2157 1.32091 25.2945 1.31446H25.2982C25.8328 1.31446 25.8955 1.79049 25.8955 2.14809C25.8918 2.84393 25.5475 2.99139 25.2618 2.99139M25.2584 0.588943H25.2354C24.7336 0.588943 24.2184 0.72719 24.0345 0.99631C23.9363 1.12718 23.8806 1.2917 23.8769 1.48478V2.78799C23.8769 2.89951 23.8539 2.9419 23.8506 2.95158L23.8211 3.00734H22.2368V2.10182H22.2331C22.2138 1.147 21.6493 0.621662 20.8322 0.621662H20.7373H20.0346C20.0018 0.854838 19.9756 1.01935 19.9429 1.25207H20.7373C21.1539 1.25207 21.3733 1.60644 21.3733 2.15113V3.0631L21.3175 3.03407C21.3078 3.03038 21.2392 3.00734 21.1309 3.00734H19.7595C19.7327 3.18153 19.7005 3.40779 19.6641 3.63452H23.8806C24.0244 3.60456 24.1921 3.5783 24.3363 3.55572C24.5497 3.66032 24.9465 3.71608 25.2193 3.71608C26.1349 3.71608 26.7289 3.10273 26.7289 2.15758C26.7252 1.22257 26.1511 0.608759 25.2584 0.588943"
        fill="#27292D" />
    <path fill-rule="evenodd" clip-rule="evenodd"
        d="M17.8662 4.01817H17.9054C18.8206 4.01817 19.2473 3.71633 19.2473 2.97164C19.2473 2.43663 18.857 2.01037 18.2008 2.01037H17.3575C17.1049 2.01037 16.9542 1.86567 16.9542 1.62281C16.9542 1.45876 17.016 1.25554 17.4298 1.25554H19.274C19.3132 1.01545 19.333 0.864762 19.3689 0.625595H17.4529C16.5602 0.625595 16.1105 0.999322 16.1105 1.62281C16.1105 2.23985 16.5008 2.56151 17.1575 2.56151H18.0008C18.2533 2.56151 18.404 2.76104 18.404 2.97164C18.404 3.10896 18.3418 3.39467 17.9321 3.39467H17.7906L15.0902 3.38822H14.5981C14.1815 3.38822 13.8893 3.15182 13.8893 2.6039V2.22649C13.8893 1.65553 14.1156 1.30116 14.5981 1.30116H15.399C15.4349 1.05831 15.4575 0.903932 15.4907 0.674442H14.493H14.3981C13.5806 0.674442 13.0165 1.22282 12.9967 2.17764V2.21359V2.6039C13.0165 3.55873 13.5806 4.01494 14.3981 4.01494H14.493H15.1953L16.6584 4.01817H17.5312H17.8662Z"
        fill="#27292D" />
</svg>
    