<svg width="23" height="23" viewBox="0 0 23 23" fill="none" xmlns="http://www.w3.org/2000/svg">
    <path
        d="M14.8 13.944V11.4C14.7988 10.2665 14.3966 9.16998 13.6645 8.30462C12.9324 7.43926 11.9176 6.86092 10.8 6.672V5.8C10.8 5.58783 10.7157 5.38434 10.5657 5.23431C10.4156 5.08429 10.2121 5 9.99998 5C9.7878 5 9.58432 5.08429 9.43429 5.23431C9.28426 5.38434 9.19998 5.58783 9.19998 5.8V6.672C8.08233 6.86092 7.0676 7.43926 6.33548 8.30462C5.60337 9.16998 5.20112 10.2665 5.19998 11.4V13.944C4.73314 14.1091 4.32877 14.4145 4.04233 14.8183C3.75588 15.2222 3.60137 15.7048 3.59998 16.2V17.8C3.59998 18.0122 3.68426 18.2157 3.83429 18.3657C3.98432 18.5157 4.1878 18.6 4.39998 18.6H6.91198C7.0962 19.2779 7.49838 19.8763 8.05645 20.303C8.61453 20.7296 9.29749 20.9608 9.99998 20.9608C10.7025 20.9608 11.3854 20.7296 11.9435 20.303C12.5016 19.8763 12.9037 19.2779 13.088 18.6H15.6C15.8121 18.6 16.0156 18.5157 16.1657 18.3657C16.3157 18.2157 16.4 18.0122 16.4 17.8V16.2C16.3986 15.7048 16.2441 15.2222 15.9576 14.8183C15.6712 14.4145 15.2668 14.1091 14.8 13.944V13.944ZM6.79998 11.4C6.79998 10.5513 7.13712 9.73737 7.73723 9.13726C8.33735 8.53714 9.15128 8.2 9.99998 8.2C10.8487 8.2 11.6626 8.53714 12.2627 9.13726C12.8628 9.73737 13.2 10.5513 13.2 11.4V13.8H6.79998V11.4ZM9.99998 19.4C9.72075 19.3983 9.44683 19.3236 9.20544 19.1832C8.96405 19.0429 8.76358 18.8418 8.62398 18.6H11.376C11.2364 18.8418 11.0359 19.0429 10.7945 19.1832C10.5531 19.3236 10.2792 19.3983 9.99998 19.4ZM14.8 17H5.19998V16.2C5.19998 15.9878 5.28426 15.7843 5.43429 15.6343C5.58432 15.4843 5.7878 15.4 5.99998 15.4H14C14.2121 15.4 14.4156 15.4843 14.5657 15.6343C14.7157 15.7843 14.8 15.9878 14.8 16.2V17Z"
        fill="#0F172A" />
    <rect x="14.2001" y="1.2" width="7.6" height="7.6" rx="3.8" fill="#EF4444" />
    <rect x="14.2001" y="1.2" width="7.6" height="7.6" rx="3.8" stroke="white" stroke-width="2" />
</svg>
    