<svg width="25" height="9" viewBox="0 0 25 9" fill="none" xmlns="http://www.w3.org/2000/svg">
    <path fill-rule="evenodd" clip-rule="evenodd"
        d="M18.1926 0.350999L17.9014 2.07994C17.0285 1.58574 15.0419 1.46881 15.0419 2.37883C15.0419 2.74043 15.4914 2.98912 16.0332 3.28886C16.8548 3.74344 17.8887 4.31543 17.8887 5.5768C17.8887 7.59214 15.7885 8.33289 14.3966 8.33289C13.0048 8.33289 12.094 7.8781 12.094 7.8781L12.3975 6.07078C13.2324 6.75964 15.7631 6.95517 15.7631 5.86298C15.7631 5.40408 15.265 5.13343 14.6874 4.81957C13.8903 4.38644 12.9417 3.87102 12.9417 2.66501C12.9417 0.454792 15.3456 0 16.3579 0C17.2943 0 18.1926 0.350999 18.1926 0.350999ZM23.125 8.19414H24.998L23.365 0.143764H21.725C20.9678 0.143764 20.7834 0.743693 20.7834 0.743693L17.7413 8.19414H19.8675L20.2927 6.99837H22.8859L23.125 8.19414ZM20.8804 5.34652L21.9522 2.33396L22.5551 5.34652H20.8804ZM5.13659 5.68106L7.08128 0.144103H9.27663L6.03129 8.19448H3.90594L2.13373 1.20076C0.983348 0.490581 0 0.280411 0 0.280411L0.0377244 0.144103H3.25268C4.13731 0.144103 4.22031 0.869143 4.22031 0.869143L4.90668 4.48917L4.90647 4.48874L5.13659 5.68106ZM8.79674 8.19426H10.8366L12.1117 0.144103H10.0716L8.79674 8.19426Z"
        fill="white" />
</svg>
    