<svg width="16" height="13" viewBox="0 0 16 13" fill="none" xmlns="http://www.w3.org/2000/svg">
<path d="M4 8.35744H6.4C6.61217 8.35744 6.81566 8.27315 6.96569 8.12312C7.11571 7.97309 7.2 7.76961 7.2 7.55744C7.2 7.34526 7.11571 7.14178 6.96569 6.99175C6.81566 6.84172 6.61217 6.75744 6.4 6.75744H4C3.78783 6.75744 3.58434 6.84172 3.43431 6.99175C3.28429 7.14178 3.2 7.34526 3.2 7.55744C3.2 7.76961 3.28429 7.97309 3.43431 8.12312C3.58434 8.27315 3.78783 8.35744 4 8.35744ZM13.6 0.357437H2.4C1.76348 0.357437 1.15303 0.610294 0.702944 1.06038C0.252856 1.51047 0 2.12092 0 2.75744V9.95744C0 10.594 0.252856 11.2044 0.702944 11.6545C1.15303 12.1046 1.76348 12.3574 2.4 12.3574H13.6C14.2365 12.3574 14.847 12.1046 15.2971 11.6545C15.7471 11.2044 16 10.594 16 9.95744V2.75744C16 2.12092 15.7471 1.51047 15.2971 1.06038C14.847 0.610294 14.2365 0.357437 13.6 0.357437ZM14.4 9.95744C14.4 10.1696 14.3157 10.3731 14.1657 10.5231C14.0157 10.6732 13.8122 10.7574 13.6 10.7574H2.4C2.18783 10.7574 1.98434 10.6732 1.83431 10.5231C1.68429 10.3731 1.6 10.1696 1.6 9.95744V5.15744H14.4V9.95744ZM14.4 3.55744H1.6V2.75744C1.6 2.54526 1.68429 2.34178 1.83431 2.19175C1.98434 2.04172 2.18783 1.95744 2.4 1.95744H13.6C13.8122 1.95744 14.0157 2.04172 14.1657 2.19175C14.3157 2.34178 14.4 2.54526 14.4 2.75744V3.55744Z" fill="#0F172A"/>
</svg>
