<svg width="16" height="14" viewBox="0 0 16 14" fill="currentColor" xmlns="http://www.w3.org/2000/svg">
<path d="M10.632 5.58944L8.408 7.81344C8.27483 7.77803 8.13779 7.75922 8 7.75744C7.57565 7.75744 7.16869 7.92601 6.86863 8.22607C6.56857 8.52613 6.4 8.9331 6.4 9.35744C6.40178 9.49523 6.42059 9.63227 6.456 9.76544L5.832 10.3894C5.75702 10.4638 5.6975 10.5523 5.65689 10.6498C5.61627 10.7473 5.59536 10.8518 5.59536 10.9574C5.59536 11.0631 5.61627 11.1676 5.65689 11.2651C5.6975 11.3626 5.75702 11.4511 5.832 11.5254C5.90637 11.6004 5.99485 11.6599 6.09234 11.7006C6.18983 11.7412 6.29439 11.7621 6.4 11.7621C6.50561 11.7621 6.61017 11.7412 6.70766 11.7006C6.80515 11.6599 6.89363 11.6004 6.968 11.5254L7.592 10.9014C7.72517 10.9369 7.86221 10.9557 8 10.9574C8.42435 10.9574 8.83131 10.7889 9.13137 10.4888C9.43143 10.1888 9.6 9.78179 9.6 9.35744C9.59822 9.21965 9.57941 9.08262 9.544 8.94944L11.768 6.72544C11.9186 6.5748 12.0033 6.37048 12.0033 6.15744C12.0033 5.9444 11.9186 5.74009 11.768 5.58944C11.6174 5.4388 11.413 5.35417 11.2 5.35417C10.987 5.35417 10.7826 5.4388 10.632 5.58944V5.58944ZM8 0.557442C6.94942 0.557442 5.90914 0.764368 4.93853 1.16641C3.96793 1.56844 3.08601 2.15772 2.34315 2.90059C0.842855 4.40088 -2.77007e-07 6.43571 -2.77007e-07 8.55744C-0.00393995 10.1419 0.466978 11.6912 1.352 13.0054C1.47082 13.1815 1.65472 13.3032 1.86326 13.3437C2.07181 13.3843 2.2879 13.3403 2.464 13.2214C2.6401 13.1026 2.76179 12.9187 2.8023 12.7102C2.84281 12.5016 2.79882 12.2855 2.68 12.1094C2.03561 11.1459 1.66502 10.0254 1.6078 8.86762C1.55058 7.70985 1.80888 6.55828 2.35511 5.53587C2.90134 4.51345 3.715 3.65859 4.7092 3.06255C5.7034 2.46652 6.84082 2.15169 8 2.15169C9.15918 2.15169 10.2966 2.46652 11.2908 3.06255C12.285 3.65859 13.0987 4.51345 13.6449 5.53587C14.1911 6.55828 14.4494 7.70985 14.3922 8.86762C14.335 10.0254 13.9644 11.1459 13.32 12.1094C13.261 12.1966 13.2198 12.2945 13.1988 12.3976C13.1777 12.5007 13.1772 12.607 13.1973 12.7103C13.2174 12.8136 13.2576 12.9119 13.3157 12.9996C13.3738 13.0873 13.4487 13.1627 13.536 13.2214C13.6684 13.3104 13.8244 13.3578 13.984 13.3574C14.115 13.3576 14.2441 13.3256 14.3599 13.2643C14.4757 13.2029 14.5746 13.114 14.648 13.0054C15.533 11.6912 16.0039 10.1419 16 8.55744C16 6.43571 15.1571 4.40088 13.6569 2.90059C12.1566 1.4003 10.1217 0.557442 8 0.557442V0.557442Z" fill="#009877"/>
<path d="M10.632 5.58944L8.408 7.81344C8.27483 7.77803 8.13779 7.75922 8 7.75744C7.57565 7.75744 7.16869 7.92601 6.86863 8.22607C6.56857 8.52613 6.4 8.9331 6.4 9.35744C6.40178 9.49523 6.42059 9.63227 6.456 9.76544L5.832 10.3894C5.75702 10.4638 5.6975 10.5523 5.65689 10.6498C5.61627 10.7473 5.59536 10.8518 5.59536 10.9574C5.59536 11.0631 5.61627 11.1676 5.65689 11.2651C5.6975 11.3626 5.75702 11.4511 5.832 11.5254C5.90637 11.6004 5.99485 11.6599 6.09234 11.7006C6.18983 11.7412 6.29439 11.7621 6.4 11.7621C6.50561 11.7621 6.61017 11.7412 6.70766 11.7006C6.80515 11.6599 6.89363 11.6004 6.968 11.5254L7.592 10.9014C7.72517 10.9369 7.86221 10.9557 8 10.9574C8.42435 10.9574 8.83131 10.7889 9.13137 10.4888C9.43143 10.1888 9.6 9.78179 9.6 9.35744C9.59822 9.21965 9.57941 9.08262 9.544 8.94944L11.768 6.72544C11.9186 6.5748 12.0033 6.37048 12.0033 6.15744C12.0033 5.9444 11.9186 5.74009 11.768 5.58944C11.6174 5.4388 11.413 5.35417 11.2 5.35417C10.987 5.35417 10.7826 5.4388 10.632 5.58944V5.58944ZM8 0.557442C6.94942 0.557442 5.90914 0.764368 4.93853 1.16641C3.96793 1.56844 3.08601 2.15772 2.34315 2.90059C0.842855 4.40088 -2.77007e-07 6.43571 -2.77007e-07 8.55744C-0.00393995 10.1419 0.466978 11.6912 1.352 13.0054C1.47082 13.1815 1.65472 13.3032 1.86326 13.3437C2.07181 13.3843 2.2879 13.3403 2.464 13.2214C2.6401 13.1026 2.76179 12.9187 2.8023 12.7102C2.84281 12.5016 2.79882 12.2855 2.68 12.1094C2.03561 11.1459 1.66502 10.0254 1.6078 8.86762C1.55058 7.70985 1.80888 6.55828 2.35511 5.53587C2.90134 4.51345 3.715 3.65859 4.7092 3.06255C5.7034 2.46652 6.84082 2.15169 8 2.15169C9.15918 2.15169 10.2966 2.46652 11.2908 3.06255C12.285 3.65859 13.0987 4.51345 13.6449 5.53587C14.1911 6.55828 14.4494 7.70985 14.3922 8.86762C14.335 10.0254 13.9644 11.1459 13.32 12.1094C13.261 12.1966 13.2198 12.2945 13.1988 12.3976C13.1777 12.5007 13.1772 12.607 13.1973 12.7103C13.2174 12.8136 13.2576 12.9119 13.3157 12.9996C13.3738 13.0873 13.4487 13.1627 13.536 13.2214C13.6684 13.3104 13.8244 13.3578 13.984 13.3574C14.115 13.3576 14.2441 13.3256 14.3599 13.2643C14.4757 13.2029 14.5746 13.114 14.648 13.0054C15.533 11.6912 16.0039 10.1419 16 8.55744C16 6.43571 15.1571 4.40088 13.6569 2.90059C12.1566 1.4003 10.1217 0.557442 8 0.557442V0.557442Z" fill="#0F172A"/>
</svg>
