<svg width="15" height="16" viewBox="0 0 15 16" fill="none" xmlns="http://www.w3.org/2000/svg">
<path d="M10.216 3.05351C10.3997 3.1578 10.6172 3.18522 10.821 3.12976C11.0248 3.07431 11.1985 2.94049 11.304 2.75751C11.3913 2.60339 11.5273 2.48262 11.6907 2.41413C11.8541 2.34564 12.0355 2.33331 12.2067 2.37906C12.3778 2.42482 12.5289 2.52608 12.6363 2.66696C12.7437 2.80784 12.8012 2.98037 12.8 3.15751C12.8 3.36968 12.7157 3.57316 12.5657 3.72319C12.4157 3.87322 12.2122 3.95751 12 3.95751C11.7878 3.95751 11.5843 4.04179 11.4343 4.19182C11.2843 4.34185 11.2 4.54533 11.2 4.75751C11.2 4.96968 11.2843 5.17316 11.4343 5.32319C11.5843 5.47322 11.7878 5.55751 12 5.55751C12.4212 5.55724 12.835 5.44611 13.1996 5.23529C13.5643 5.02448 13.8671 4.7214 14.0775 4.35651C14.2879 3.99162 14.3986 3.57777 14.3985 3.15655C14.3983 2.73532 14.2873 2.32156 14.0765 1.95684C13.8658 1.59212 13.5628 1.28928 13.198 1.07876C12.8331 0.868234 12.4193 0.75744 11.9981 0.757507C11.5769 0.757575 11.1631 0.868502 10.7983 1.07914C10.4335 1.28978 10.1306 1.59272 9.92 1.95751C9.8671 2.04881 9.8328 2.14968 9.81905 2.25431C9.8053 2.35893 9.81239 2.46524 9.8399 2.56711C9.86742 2.66898 9.91481 2.7644 9.97936 2.84788C10.0439 2.93136 10.1243 3.00124 10.216 3.05351ZM13.656 8.75751C13.446 8.73025 13.2338 8.78737 13.0658 8.91633C12.8979 9.0453 12.7879 9.23559 12.76 9.44551C12.5921 10.8016 11.9342 12.0496 10.9101 12.9543C9.88602 13.859 8.56648 14.3581 7.2 14.3575H2.728L3.248 13.8375C3.397 13.6876 3.48064 13.4849 3.48064 13.2735C3.48064 13.0622 3.397 12.8594 3.248 12.7095C2.46796 11.9264 1.93711 10.93 1.72232 9.84572C1.50752 8.76148 1.61839 7.63792 2.04096 6.61657C2.46353 5.59522 3.1789 4.72176 4.09695 4.10622C5.01501 3.49068 6.09469 3.16058 7.2 3.15751C7.41217 3.15751 7.61566 3.07322 7.76569 2.92319C7.91571 2.77316 8 2.56968 8 2.35751C8 2.14533 7.91571 1.94185 7.76569 1.79182C7.61566 1.64179 7.41217 1.55751 7.2 1.55751C5.84739 1.56315 4.52372 1.9497 3.38064 2.67286C2.23756 3.39603 1.32131 4.42656 0.736852 5.6464C0.152397 6.86625 -0.0766202 8.22605 0.0760371 9.57004C0.228694 10.914 0.756852 12.1878 1.6 13.2455L0.232001 14.5895C0.120994 14.702 0.0457975 14.8449 0.0158982 15.0001C-0.0140011 15.1552 0.00273701 15.3158 0.0640006 15.4615C0.124017 15.6076 0.225935 15.7327 0.356911 15.8209C0.487887 15.9092 0.64206 15.9567 0.800001 15.9575H7.2C8.95316 15.9577 10.6462 15.3183 11.9615 14.1592C13.2767 13 14.1239 11.4008 14.344 9.66151C14.3586 9.55691 14.3524 9.45046 14.3257 9.34828C14.299 9.2461 14.2523 9.15023 14.1883 9.06618C14.1244 8.98214 14.0444 8.9116 13.953 8.85862C13.8617 8.80564 13.7607 8.77127 13.656 8.75751ZM12.304 6.41351C12.1584 6.34907 11.9968 6.32957 11.84 6.35751L11.696 6.40551L11.552 6.47751L11.432 6.58151C11.36 6.65523 11.303 6.74215 11.264 6.83751C11.2167 6.93729 11.1947 7.0472 11.2 7.15751C11.1977 7.2642 11.2167 7.37028 11.256 7.46951C11.2974 7.56552 11.3572 7.65249 11.432 7.72551C11.5068 7.79965 11.5954 7.85831 11.6929 7.89812C11.7903 7.93793 11.8947 7.95812 12 7.95751C12.2122 7.95751 12.4157 7.87322 12.5657 7.72319C12.7157 7.57316 12.8 7.36968 12.8 7.15751C12.8027 7.05257 12.7808 6.94845 12.736 6.85351C12.65 6.66127 12.4962 6.50747 12.304 6.42151V6.41351Z" fill="#0F172A"/>
</svg>
