<svg width="16" height="16" viewBox="0 0 16 16" fill="none" xmlns="http://www.w3.org/2000/svg">
<path d="M14.4 8.90145V7.15745C14.4 5.46006 13.7257 3.8322 12.5255 2.63196C11.3253 1.43173 9.69739 0.757446 8 0.757446C6.30261 0.757446 4.67475 1.43173 3.47452 2.63196C2.27428 3.8322 1.6 5.46006 1.6 7.15745V8.90145C1.13316 9.0665 0.728799 9.3719 0.442351 9.77579C0.155903 10.1797 0.00139161 10.6623 0 11.1574V12.7574C0 13.394 0.252856 14.0044 0.702944 14.4545C1.15303 14.9046 1.76348 15.1574 2.4 15.1574H4.8C5.01217 15.1574 5.21566 15.0732 5.36569 14.9231C5.51571 14.7731 5.6 14.5696 5.6 14.3574V9.55745C5.6 9.34527 5.51571 9.14179 5.36569 8.99176C5.21566 8.84173 5.01217 8.75745 4.8 8.75745H3.2V7.15745C3.2 5.88441 3.70571 4.66351 4.60589 3.76333C5.50606 2.86316 6.72696 2.35745 8 2.35745C9.27304 2.35745 10.4939 2.86316 11.3941 3.76333C12.2943 4.66351 12.8 5.88441 12.8 7.15745V8.75745H11.2C10.9878 8.75745 10.7843 8.84173 10.6343 8.99176C10.4843 9.14179 10.4 9.34527 10.4 9.55745V14.3574C10.4 14.5696 10.4843 14.7731 10.6343 14.9231C10.7843 15.0732 10.9878 15.1574 11.2 15.1574H13.6C14.2365 15.1574 14.847 14.9046 15.2971 14.4545C15.7471 14.0044 16 13.394 16 12.7574V11.1574C15.9986 10.6623 15.8441 10.1797 15.5576 9.77579C15.2712 9.3719 14.8668 9.0665 14.4 8.90145ZM4 10.3574V13.5574H2.4C2.18783 13.5574 1.98434 13.4732 1.83431 13.3231C1.68429 13.1731 1.6 12.9696 1.6 12.7574V11.1574C1.6 10.9453 1.68429 10.7418 1.83431 10.5918C1.98434 10.4417 2.18783 10.3574 2.4 10.3574H4ZM14.4 12.7574C14.4 12.9696 14.3157 13.1731 14.1657 13.3231C14.0157 13.4732 13.8122 13.5574 13.6 13.5574H12V10.3574H13.6C13.8122 10.3574 14.0157 10.4417 14.1657 10.5918C14.3157 10.7418 14.4 10.9453 14.4 11.1574V12.7574Z" fill="#0F172A"/>
</svg>
