<svg width="14" height="17" viewBox="0 0 14 17" fill="none" xmlns="http://www.w3.org/2000/svg">
<path d="M0.6 8.95746C0.6 9.16963 0.684286 9.37311 0.834315 9.52314C0.984344 9.67317 1.18783 9.75746 1.4 9.75746H7.472L5.632 11.5895C5.55702 11.6638 5.4975 11.7523 5.45689 11.8498C5.41627 11.9473 5.39536 12.0518 5.39536 12.1575C5.39536 12.2631 5.41627 12.3676 5.45689 12.4651C5.4975 12.5626 5.55702 12.6511 5.632 12.7255C5.70637 12.8004 5.79485 12.86 5.89234 12.9006C5.98983 12.9412 6.09439 12.9621 6.2 12.9621C6.30561 12.9621 6.41017 12.9412 6.50766 12.9006C6.60515 12.86 6.69363 12.8004 6.768 12.7255L9.968 9.52546C10.0408 9.44938 10.0979 9.35966 10.136 9.26146C10.216 9.06669 10.216 8.84823 10.136 8.65346C10.0979 8.55526 10.0408 8.46554 9.968 8.38946L6.768 5.18946C6.69341 5.11487 6.60486 5.0557 6.5074 5.01533C6.40994 4.97496 6.30549 4.95419 6.2 4.95419C6.09451 4.95419 5.99006 4.97496 5.8926 5.01533C5.79514 5.0557 5.70659 5.11487 5.632 5.18946C5.55741 5.26405 5.49824 5.3526 5.45787 5.45006C5.4175 5.54752 5.39673 5.65197 5.39673 5.75746C5.39673 5.86295 5.4175 5.9674 5.45787 6.06486C5.49824 6.16232 5.55741 6.25087 5.632 6.32546L7.472 8.15746H1.4C1.18783 8.15746 0.984344 8.24174 0.834315 8.39177C0.684286 8.5418 0.6 8.74529 0.6 8.95746ZM11 0.957458H3C2.36348 0.957458 1.75303 1.21031 1.30294 1.6604C0.852857 2.11049 0.6 2.72094 0.6 3.35746V5.75746C0.6 5.96963 0.684286 6.17311 0.834315 6.32314C0.984344 6.47317 1.18783 6.55746 1.4 6.55746C1.61217 6.55746 1.81566 6.47317 1.96569 6.32314C2.11571 6.17311 2.2 5.96963 2.2 5.75746V3.35746C2.2 3.14529 2.28429 2.9418 2.43432 2.79177C2.58434 2.64174 2.78783 2.55746 3 2.55746H11C11.2122 2.55746 11.4157 2.64174 11.5657 2.79177C11.7157 2.9418 11.8 3.14529 11.8 3.35746V14.5575C11.8 14.7696 11.7157 14.9731 11.5657 15.1231C11.4157 15.2732 11.2122 15.3575 11 15.3575H3C2.78783 15.3575 2.58434 15.2732 2.43432 15.1231C2.28429 14.9731 2.2 14.7696 2.2 14.5575V12.1575C2.2 11.9453 2.11571 11.7418 1.96569 11.5918C1.81566 11.4417 1.61217 11.3575 1.4 11.3575C1.18783 11.3575 0.984344 11.4417 0.834315 11.5918C0.684286 11.7418 0.6 11.9453 0.6 12.1575V14.5575C0.6 15.194 0.852857 15.8044 1.30294 16.2545C1.75303 16.7046 2.36348 16.9575 3 16.9575H11C11.6365 16.9575 12.247 16.7046 12.6971 16.2545C13.1471 15.8044 13.4 15.194 13.4 14.5575V3.35746C13.4 2.72094 13.1471 2.11049 12.6971 1.6604C12.247 1.21031 11.6365 0.957458 11 0.957458Z" fill="#0F172A"/>
</svg>
