<svg width="14" height="17" viewBox="0 0 14 17" fill="none" xmlns="http://www.w3.org/2000/svg">
<path d="M4.6 7.35746H5.4C5.61217 7.35746 5.81566 7.27317 5.96569 7.12314C6.11572 6.97311 6.2 6.76963 6.2 6.55746C6.2 6.34529 6.11572 6.1418 5.96569 5.99177C5.81566 5.84174 5.61217 5.75746 5.4 5.75746H4.6C4.38783 5.75746 4.18434 5.84174 4.03432 5.99177C3.88429 6.1418 3.8 6.34529 3.8 6.55746C3.8 6.76963 3.88429 6.97311 4.03432 7.12314C4.18434 7.27317 4.38783 7.35746 4.6 7.35746ZM4.6 8.95746C4.38783 8.95746 4.18434 9.04174 4.03432 9.19177C3.88429 9.3418 3.8 9.54529 3.8 9.75746C3.8 9.96963 3.88429 10.1731 4.03432 10.3231C4.18434 10.4732 4.38783 10.5575 4.6 10.5575H9.4C9.61217 10.5575 9.81566 10.4732 9.96569 10.3231C10.1157 10.1731 10.2 9.96963 10.2 9.75746C10.2 9.54529 10.1157 9.3418 9.96569 9.19177C9.81566 9.04174 9.61217 8.95746 9.4 8.95746H4.6ZM13.4 6.50946C13.3917 6.43597 13.3756 6.36356 13.352 6.29346V6.22146C13.3135 6.1392 13.2622 6.06359 13.2 5.99746L8.4 1.19746C8.33387 1.13523 8.25826 1.08392 8.176 1.04546C8.15212 1.04207 8.12788 1.04207 8.104 1.04546C8.02273 0.998851 7.93298 0.968934 7.84 0.957458H3C2.36348 0.957458 1.75303 1.21031 1.30294 1.6604C0.852857 2.11049 0.6 2.72094 0.6 3.35746V14.5575C0.6 15.194 0.852857 15.8044 1.30294 16.2545C1.75303 16.7046 2.36348 16.9575 3 16.9575H11C11.6365 16.9575 12.247 16.7046 12.6971 16.2545C13.1471 15.8044 13.4 15.194 13.4 14.5575V6.55746C13.4 6.55746 13.4 6.55746 13.4 6.50946ZM8.6 3.68546L10.672 5.75746H9.4C9.18783 5.75746 8.98434 5.67317 8.83432 5.52314C8.68429 5.37311 8.6 5.16963 8.6 4.95746V3.68546ZM11.8 14.5575C11.8 14.7696 11.7157 14.9731 11.5657 15.1231C11.4157 15.2732 11.2122 15.3575 11 15.3575H3C2.78783 15.3575 2.58434 15.2732 2.43432 15.1231C2.28429 14.9731 2.2 14.7696 2.2 14.5575V3.35746C2.2 3.14529 2.28429 2.9418 2.43432 2.79177C2.58434 2.64174 2.78783 2.55746 3 2.55746H7V4.95746C7 5.59398 7.25286 6.20443 7.70294 6.65452C8.15303 7.1046 8.76348 7.35746 9.4 7.35746H11.8V14.5575ZM9.4 12.1575H4.6C4.38783 12.1575 4.18434 12.2417 4.03432 12.3918C3.88429 12.5418 3.8 12.7453 3.8 12.9575C3.8 13.1696 3.88429 13.3731 4.03432 13.5231C4.18434 13.6732 4.38783 13.7575 4.6 13.7575H9.4C9.61217 13.7575 9.81566 13.6732 9.96569 13.5231C10.1157 13.3731 10.2 13.1696 10.2 12.9575C10.2 12.7453 10.1157 12.5418 9.96569 12.3918C9.81566 12.2417 9.61217 12.1575 9.4 12.1575Z" fill="#0F172A"/>
</svg>
