<svg width="16" height="17" viewBox="0 0 16 17" fill="none" xmlns="http://www.w3.org/2000/svg">
<path d="M15.2 10.5574C14.9878 10.5574 14.7843 10.6417 14.6343 10.7918C14.4843 10.9418 14.4 11.1453 14.4 11.3574V14.5574C14.4 14.7696 14.3157 14.9731 14.1657 15.1231C14.0157 15.2732 13.8122 15.3574 13.6 15.3574H2.4C2.18783 15.3574 1.98434 15.2732 1.83431 15.1231C1.68429 14.9731 1.6 14.7696 1.6 14.5574V11.3574C1.6 11.1453 1.51571 10.9418 1.36569 10.7918C1.21566 10.6417 1.01217 10.5574 0.8 10.5574C0.587827 10.5574 0.384344 10.6417 0.234315 10.7918C0.0842854 10.9418 0 11.1453 0 11.3574V14.5574C0 15.194 0.252856 15.8044 0.702944 16.2545C1.15303 16.7046 1.76348 16.9574 2.4 16.9574H13.6C14.2365 16.9574 14.847 16.7046 15.2971 16.2545C15.7471 15.8044 16 15.194 16 14.5574V11.3574C16 11.1453 15.9157 10.9418 15.7657 10.7918C15.6157 10.6417 15.4122 10.5574 15.2 10.5574ZM7.432 11.9254C7.50808 11.9983 7.5978 12.0554 7.696 12.0934C7.79176 12.1358 7.8953 12.1576 8 12.1576C8.1047 12.1576 8.20824 12.1358 8.304 12.0934C8.4022 12.0554 8.49192 11.9983 8.568 11.9254L11.768 8.72544C11.9186 8.5748 12.0033 8.37048 12.0033 8.15744C12.0033 7.9444 11.9186 7.74009 11.768 7.58944C11.6174 7.4388 11.413 7.35417 11.2 7.35417C10.987 7.35417 10.7826 7.4388 10.632 7.58944L8.8 9.42944V1.75744C8.8 1.54527 8.71571 1.34179 8.56569 1.19176C8.41566 1.04173 8.21217 0.957443 8 0.957443C7.78783 0.957443 7.58434 1.04173 7.43431 1.19176C7.28429 1.34179 7.2 1.54527 7.2 1.75744V9.42944L5.368 7.58944C5.29341 7.51485 5.20486 7.45568 5.1074 7.41532C5.00994 7.37495 4.90549 7.35417 4.8 7.35417C4.69451 7.35417 4.59006 7.37495 4.4926 7.41532C4.39514 7.45568 4.30659 7.51485 4.232 7.58944C4.15741 7.66403 4.09824 7.75259 4.05787 7.85004C4.0175 7.9475 3.99673 8.05196 3.99673 8.15744C3.99673 8.26293 4.0175 8.36739 4.05787 8.46484C4.09824 8.5623 4.15741 8.65085 4.232 8.72544L7.432 11.9254Z" fill="#0F172A"/>
</svg>
