<svg width="16" height="17" viewBox="0 0 16 17" fill="none" xmlns="http://www.w3.org/2000/svg">
<path d="M15.456 6.99746L13.944 6.49346L14.656 5.06946C14.7282 4.92041 14.7523 4.75263 14.7251 4.58928C14.6979 4.42593 14.6206 4.27505 14.504 4.15746L12.8 2.45346C12.6818 2.33513 12.5295 2.25683 12.3644 2.22956C12.1994 2.2023 12.03 2.22744 11.88 2.30146L10.456 3.01346L9.952 1.50146C9.89877 1.34386 9.79774 1.20676 9.66295 1.10926C9.52817 1.01176 9.36635 0.958697 9.2 0.957461H6.8C6.63228 0.957028 6.46867 1.00932 6.3323 1.10693C6.19592 1.20455 6.09367 1.34256 6.04 1.50146L5.536 3.01346L4.112 2.30146C3.96295 2.22929 3.79517 2.20514 3.63182 2.23237C3.46846 2.2596 3.31758 2.33685 3.2 2.45346L1.496 4.15746C1.37767 4.27567 1.29936 4.428 1.2721 4.59303C1.24483 4.75805 1.26998 4.92747 1.344 5.07746L2.056 6.50146L0.543999 7.00546C0.386393 7.05869 0.249299 7.15972 0.151797 7.29451C0.0542952 7.42929 0.00123432 7.59111 -1.14787e-06 7.75746V10.1575C-0.000434077 10.3252 0.051854 10.4888 0.149472 10.6252C0.247091 10.7615 0.385102 10.8638 0.543999 10.9175L2.056 11.4215L1.344 12.8455C1.27182 12.9945 1.24768 13.1623 1.27491 13.3256C1.30213 13.489 1.37938 13.6399 1.496 13.7575L3.2 15.4615C3.31821 15.5798 3.47054 15.6581 3.63556 15.6854C3.80059 15.7126 3.97001 15.6875 4.12 15.6135L5.544 14.9015L6.048 16.4135C6.10167 16.5724 6.20392 16.7104 6.3403 16.808C6.47668 16.9056 6.64028 16.9579 6.808 16.9575H9.208C9.37571 16.9579 9.53932 16.9056 9.6757 16.808C9.81208 16.7104 9.91433 16.5724 9.968 16.4135L10.472 14.9015L11.896 15.6135C12.0441 15.6838 12.2102 15.707 12.3719 15.6798C12.5336 15.6526 12.6831 15.5764 12.8 15.4615L14.504 13.7575C14.6223 13.6393 14.7006 13.4869 14.7279 13.3219C14.7552 13.1569 14.73 12.9875 14.656 12.8375L13.944 11.4135L15.456 10.9095C15.6136 10.8562 15.7507 10.7552 15.8482 10.6204C15.9457 10.4856 15.9988 10.3238 16 10.1575V7.75746C16.0004 7.58975 15.9481 7.42614 15.8505 7.28976C15.7529 7.15338 15.6149 7.05113 15.456 6.99746ZM14.4 9.58146L13.44 9.90146C13.2192 9.97307 13.0167 10.0918 12.8464 10.2495C12.6762 10.4072 12.5423 10.6001 12.454 10.8147C12.3657 11.0294 12.3251 11.2606 12.3352 11.4925C12.3452 11.7243 12.4055 11.9513 12.512 12.1575L12.968 13.0695L12.088 13.9495L11.2 13.4695C10.9948 13.3673 10.7701 13.3103 10.541 13.3025C10.312 13.2947 10.0839 13.3362 9.87225 13.4242C9.66061 13.5122 9.47034 13.6446 9.31433 13.8125C9.15833 13.9805 9.04021 14.1799 8.968 14.3975L8.648 15.3575H7.376L7.056 14.3975C6.98439 14.1767 6.86562 13.9742 6.70792 13.8039C6.55022 13.6336 6.35736 13.4997 6.14274 13.4114C5.92811 13.3231 5.69684 13.2826 5.46498 13.2926C5.23312 13.3026 5.00621 13.363 4.8 13.4695L3.888 13.9255L3.008 13.0455L3.488 12.1575C3.59447 11.9513 3.65481 11.7243 3.66484 11.4925C3.67486 11.2606 3.63432 11.0294 3.54603 10.8147C3.45774 10.6001 3.32382 10.4072 3.15356 10.2495C2.98329 10.0918 2.78075 9.97307 2.56 9.90146L1.6 9.58146V8.33346L2.56 8.01346C2.78075 7.94185 2.98329 7.82308 3.15356 7.66538C3.32382 7.50768 3.45774 7.31483 3.54603 7.1002C3.63432 6.88557 3.67486 6.6543 3.66484 6.42244C3.65481 6.19058 3.59447 5.96367 3.488 5.75746L3.032 4.86946L3.912 3.98946L4.8 4.44546C5.00621 4.55194 5.23312 4.61228 5.46498 4.6223C5.69684 4.63232 5.92811 4.59178 6.14274 4.50349C6.35736 4.41521 6.55022 4.28128 6.70792 4.11102C6.86562 3.94075 6.98439 3.73822 7.056 3.51746L7.376 2.55746H8.624L8.944 3.51746C9.01561 3.73822 9.13438 3.94075 9.29208 4.11102C9.44978 4.28128 9.64263 4.41521 9.85726 4.50349C10.0719 4.59178 10.3032 4.63232 10.535 4.6223C10.7669 4.61228 10.9938 4.55194 11.2 4.44546L12.112 3.98946L12.992 4.86946L12.512 5.75746C12.4098 5.96262 12.3528 6.18734 12.345 6.41641C12.3372 6.64549 12.3787 6.87356 12.4667 7.08521C12.5547 7.29685 12.6872 7.48712 12.8551 7.64313C13.023 7.79914 13.2225 7.91725 13.44 7.98946L14.4 8.30946V9.58146ZM8 5.75746C7.3671 5.75746 6.74841 5.94514 6.22218 6.29676C5.69594 6.64838 5.28578 7.14815 5.04358 7.73287C4.80138 8.3176 4.73801 8.96101 4.86149 9.58175C4.98496 10.2025 5.28973 10.7727 5.73726 11.2202C6.18479 11.6677 6.75497 11.9725 7.37571 12.096C7.99645 12.2194 8.63986 12.1561 9.22459 11.9139C9.80931 11.6717 10.3091 11.2615 10.6607 10.7353C11.0123 10.209 11.2 9.59036 11.2 8.95746C11.2 8.10877 10.8629 7.29484 10.2627 6.69472C9.66262 6.0946 8.84869 5.75746 8 5.75746ZM8 10.5575C7.68355 10.5575 7.37421 10.4636 7.11109 10.2878C6.84797 10.112 6.64289 9.86212 6.52179 9.56975C6.40069 9.27739 6.36901 8.95569 6.43074 8.64532C6.49248 8.33495 6.64486 8.04985 6.86863 7.82609C7.09239 7.60233 7.37749 7.44994 7.68785 7.3882C7.99822 7.32647 8.31993 7.35815 8.61229 7.47925C8.90465 7.60035 9.15454 7.80543 9.33035 8.06855C9.50616 8.33167 9.6 8.64101 9.6 8.95746C9.6 9.38181 9.43143 9.78877 9.13137 10.0888C8.83131 10.3889 8.42435 10.5575 8 10.5575Z" fill="#0F172A"/>
</svg>
