<svg width="16" height="12" viewBox="0 0 16 12" fill="none" xmlns="http://www.w3.org/2000/svg">
<path d="M15.768 3.78946L12.568 0.58946C12.4934 0.51487 12.4049 0.455701 12.3074 0.415333C12.2099 0.374965 12.1055 0.354187 12 0.354187C11.787 0.354187 11.5826 0.438817 11.432 0.58946C11.2814 0.740103 11.1967 0.944419 11.1967 1.15746C11.1967 1.3705 11.2814 1.57482 11.432 1.72546L13.272 3.55746H4C3.78783 3.55746 3.58434 3.64175 3.43432 3.79178C3.28429 3.9418 3.2 4.14529 3.2 4.35746C3.2 4.56963 3.28429 4.77312 3.43432 4.92315C3.58434 5.07317 3.78783 5.15746 4 5.15746H15.2C15.3579 5.15667 15.5121 5.10915 15.6431 5.02088C15.7741 4.93262 15.876 4.80756 15.936 4.66146C15.9973 4.51577 16.014 4.3552 15.9841 4.20001C15.9542 4.04482 15.879 3.90196 15.768 3.78946V3.78946ZM12 6.75746H0.800001C0.64206 6.75825 0.487887 6.80577 0.356911 6.89404C0.225935 6.9823 0.124017 7.10737 0.0640006 7.25346C0.00273701 7.39915 -0.0140011 7.55972 0.0158982 7.71491C0.0457975 7.8701 0.120994 8.01296 0.232001 8.12546L3.432 11.3255C3.50637 11.4004 3.59485 11.46 3.69234 11.5006C3.78983 11.5412 3.89439 11.5621 4 11.5621C4.10561 11.5621 4.21017 11.5412 4.30766 11.5006C4.40515 11.46 4.49363 11.4004 4.568 11.3255C4.64298 11.2511 4.7025 11.1626 4.74311 11.0651C4.78373 10.9676 4.80464 10.8631 4.80464 10.7575C4.80464 10.6519 4.78373 10.5473 4.74311 10.4498C4.7025 10.3523 4.64298 10.2638 4.568 10.1895L2.728 8.35746H12C12.2122 8.35746 12.4157 8.27318 12.5657 8.12315C12.7157 7.97312 12.8 7.76963 12.8 7.55746C12.8 7.34529 12.7157 7.1418 12.5657 6.99178C12.4157 6.84175 12.2122 6.75746 12 6.75746Z" fill="#0F172A"/>
</svg>
